<svg xmlns="http://www.w3.org/2000/svg" width="277" height="43" viewBox="0 0 277 43" fill="none"><path d="M13.0771 19.5508C14.5231 19.5508 15.6953 18.3786 15.6953 16.9326C15.6953 15.4867 14.5231 14.3145 13.0771 14.3145C11.6312 14.3145 10.459 15.4867 10.459 16.9326C10.459 18.3786 11.6312 19.5508 13.0771 19.5508Z" fill="white"></path><path d="M48.9973 26.8109V6.48881C48.9973 -0.437581 44.0242 0.00570805 44.0242 0.00570805H27.4008C22.774 0.00570805 22.4138 0.919994 21.1532 2.63774C19.8926 4.35549 19.768 4.63255 17.9394 2.55463C16.1108 0.476708 14.3654 -0.215935 12.3983 0.0611205C-0.0692497 2.69315 8.36192e-06 12.5286 8.36192e-06 12.5286V28.8472C5.02857 31.3407 11.3177 28.8472 11.3177 28.8472C9.13079 31.3449 6.13423 32.9927 2.85369 33.5018C3.17231 33.9173 4.80692 33.8204 4.80692 33.8204H41.503C41.668 35.414 41.4076 37.0229 40.7481 38.483C40.0886 39.9432 39.0537 41.2023 37.7489 42.1321C49.8146 39.5277 48.9973 26.8109 48.9973 26.8109ZM11.3731 21.3806C9.72926 21.3806 8.12228 20.8931 6.75543 19.9798C5.38858 19.0665 4.32326 17.7684 3.69417 16.2496C3.06508 14.7309 2.90048 13.0597 3.22119 11.4474C3.5419 9.83506 4.33349 8.35406 5.4959 7.19165C6.65831 6.02924 8.13931 5.23763 9.75162 4.91692C11.3639 4.59621 13.0351 4.76082 14.5539 5.38991C16.0726 6.019 17.3708 7.08433 18.2841 8.45117C19.1974 9.81802 19.6848 11.425 19.6848 13.0689C19.6848 15.2733 18.8091 17.3874 17.2504 18.9461C15.6917 20.5049 13.5775 21.3806 11.3731 21.3806ZM24.4779 19.4966C23.9601 19.4966 23.4539 19.343 23.0233 19.0553C22.5928 18.7677 22.2572 18.3588 22.059 17.8803C21.8608 17.4019 21.809 16.8755 21.91 16.3676C22.0111 15.8598 22.2604 15.3932 22.6266 15.0271C22.9927 14.6609 23.4592 14.4116 23.9671 14.3105C24.475 14.2095 25.0014 14.2614 25.4798 14.4595C25.9582 14.6577 26.3671 14.9933 26.6548 15.4238C26.9425 15.8544 27.0961 16.3606 27.0961 16.8784C27.1035 17.2269 27.0412 17.5733 26.9129 17.8974C26.7846 18.2214 26.593 18.5166 26.3491 18.7657C26.1052 19.0147 25.8141 19.2125 25.4928 19.3475C25.1715 19.4826 24.8264 19.5521 24.4779 19.552V19.4966ZM35.8372 19.4966C35.3188 19.4993 34.8112 19.3481 34.3788 19.0621C33.9465 18.7761 33.6087 18.3681 33.4084 17.89C33.2082 17.4118 33.1543 16.885 33.2538 16.3762C33.3532 15.8674 33.6015 15.3996 33.9671 15.032C34.3327 14.6645 34.7992 14.4137 35.3074 14.3116C35.8157 14.2094 36.3428 14.2605 36.822 14.4582C37.3013 14.656 37.711 14.9916 37.9993 15.4224C38.2876 15.8533 38.4415 16.36 38.4415 16.8784C38.4489 17.2257 38.387 17.571 38.2596 17.8942C38.1322 18.2173 37.9418 18.5119 37.6994 18.7607C37.457 19.0096 37.1675 19.2077 36.8478 19.3435C36.5281 19.4794 36.1846 19.5502 35.8372 19.552V19.4966Z" fill="white"></path><path d="M93.0077 4.13477L87.4665 21.1044H82.3272L79.0856 10.7702L75.7194 21.1044H70.5939L65.0527 4.13477H69.9982L73.406 14.9676L76.9938 4.13477H81.4129L84.8345 15.0646L88.3947 4.13477H93.0077Z" fill="white"></path><path d="M94.7246 4.13477H99.5177V21.1044H94.7246V4.13477Z" fill="white"></path><path d="M119.078 4.13477V21.1044H115.13L107.649 12.0586V21.1044H102.939V4.13477H106.887L114.382 13.1668V4.13477H119.078Z" fill="white"></path><path d="M142.627 21.1041L141.034 19.7188C140.228 20.2917 139.334 20.7313 138.389 21.021C137.4 21.3173 136.373 21.4667 135.341 21.4642C134.159 21.4793 132.984 21.2725 131.878 20.8547C130.928 20.5066 130.087 19.9141 129.44 19.137C128.873 18.4467 128.568 17.5781 128.581 16.685C128.564 15.6957 128.86 14.7263 129.426 13.9145C130.145 12.9755 131.069 12.2127 132.127 11.6842C131.643 11.2502 131.25 10.7241 130.972 10.1366C130.694 9.54907 130.535 8.91196 130.506 8.26253C130.493 7.44924 130.741 6.65312 131.213 5.99067C131.711 5.29262 132.406 4.75763 133.208 4.45301C134.156 4.0641 135.175 3.87545 136.2 3.8989C137.553 3.83731 138.888 4.22715 139.995 5.00713C140.447 5.3537 140.809 5.80404 141.05 6.32005C141.292 6.83606 141.405 7.40256 141.381 7.97162C141.394 8.81073 141.126 9.6301 140.619 10.2989C139.966 11.0947 139.154 11.7457 138.236 12.2106L140.702 14.427L142.087 12.6262L144.567 14.9673L143.542 16.9621L147.698 21.1179L142.627 21.1041ZM138.292 17.2253L134.621 13.9699C134.173 14.2314 133.778 14.5744 133.457 14.9811C133.218 15.3271 133.092 15.7384 133.097 16.1586C133.097 16.4134 133.163 16.6639 133.286 16.8867C133.41 17.1096 133.588 17.2975 133.803 17.4331C134.368 17.7805 135.025 17.9495 135.687 17.9179C136.602 17.9283 137.503 17.6888 138.292 17.2253ZM135.092 7.26513C134.962 7.37877 134.858 7.51958 134.789 7.67758C134.72 7.83557 134.686 8.00689 134.69 8.17942C134.693 8.45948 134.774 8.73305 134.925 8.96903C135.173 9.32896 135.461 9.65901 135.784 9.95257C136.295 9.71159 136.763 9.38872 137.169 8.99673C137.419 8.74557 137.563 8.40852 137.571 8.05474C137.577 7.89944 137.548 7.7448 137.489 7.60137C137.429 7.45793 137.339 7.32906 137.225 7.22357C136.936 7.00242 136.577 6.89408 136.214 6.91881C135.81 6.89128 135.41 7.01469 135.092 7.26513Z" fill="white"></path><path d="M181.416 4.13477L175.874 21.1044H170.735L167.563 10.7702L164.169 21.1044H159.029L153.488 4.13477H158.434L161.855 14.9676L165.443 4.13477H169.862L173.27 15.0646L176.844 4.13477H181.416Z" fill="white"></path><path d="M183.162 4.13477H187.955V21.1044H183.162V4.13477Z" fill="white"></path><path d="M207.513 4.13477V21.1044H203.579L196.085 12.0586V21.1044H191.389V4.13477H195.267L202.762 13.1668V4.13477H207.513Z" fill="white"></path><path d="M227.13 4.13477V21.1044H223.113L215.618 12.0586V21.1044H210.908V4.13477H214.87L222.351 13.1668V4.13477H227.13Z" fill="white"></path><path d="M234.168 20.3008C232.779 19.5743 231.615 18.4822 230.802 17.1424C230.004 15.7661 229.584 14.2034 229.584 12.6125C229.584 11.0216 230.004 9.459 230.802 8.08267C231.615 6.74285 232.779 5.65072 234.168 4.92423C235.675 4.17505 237.334 3.78516 239.017 3.78516C240.699 3.78516 242.359 4.17505 243.865 4.92423C245.269 5.65286 246.441 6.75827 247.251 8.11636C248.061 9.47446 248.476 11.0315 248.451 12.6125C248.479 14.2072 248.057 15.7775 247.231 17.1424C246.418 18.4822 245.254 19.5743 243.865 20.3008C242.359 21.05 240.699 21.4399 239.017 21.4399C237.334 21.4399 235.675 21.05 234.168 20.3008ZM241.344 16.8515C242.038 16.4437 242.608 15.8547 242.993 15.1476C243.384 14.3599 243.588 13.4922 243.588 12.6125C243.588 11.7328 243.384 10.8651 242.993 10.0775C242.608 9.37037 242.038 8.78134 241.344 8.37358C240.636 7.96875 239.833 7.75846 239.017 7.76405C238.2 7.75512 237.397 7.96563 236.689 8.37358C235.989 8.77319 235.417 9.36427 235.041 10.0775C234.638 10.8616 234.427 11.7307 234.427 12.6125C234.427 13.4944 234.638 14.3635 235.041 15.1476C235.417 15.8608 235.989 16.4519 236.689 16.8515C237.394 17.266 238.2 17.477 239.017 17.461C239.834 17.4734 240.638 17.2627 241.344 16.8515Z" fill="white"></path><path d="M276.999 4.13477L271.458 21.1044H266.319L263.147 10.7702L259.753 21.1044H254.613L249.072 4.13477H254.018L257.439 14.9676L261.027 4.13477H265.432L268.854 15.0646L272.414 4.13477H276.999Z" fill="white"></path><path d="M69.209 28.7793H70.4696V36.62H75.2765V37.7144H69.209V28.7793Z" fill="white"></path><path d="M85.5541 35.4286H80.8441L79.8744 37.6451H78.5723L82.5757 28.7793H83.8363L87.8537 37.6451H86.4684L85.5541 35.4286ZM85.1108 34.4174L83.1991 30.0815L81.2874 34.4174H85.1108Z" fill="white"></path><path d="M100.017 28.7793V37.6451H98.9785L93.659 31.0789V37.6866H92.3984V28.8209H93.4235L98.743 35.4286V28.7793H100.017Z" fill="white"></path><path d="M112.028 33.1687H113.247V36.618C112.79 36.9862 112.269 37.2678 111.71 37.4492C111.12 37.6443 110.503 37.7426 109.881 37.7401C109.042 37.7516 108.213 37.5515 107.471 37.1583C106.766 36.788 106.18 36.2262 105.781 35.5375C105.382 34.8268 105.172 34.0254 105.172 33.2102C105.172 32.3951 105.382 31.5936 105.781 30.883C106.18 30.1943 106.766 29.6324 107.471 29.2622C108.222 28.8672 109.06 28.6672 109.909 28.6804C110.572 28.6697 111.23 28.7873 111.848 29.0267C112.411 29.2501 112.913 29.601 113.317 30.0518L112.527 30.8275C112.189 30.4953 111.789 30.2336 111.349 30.0576C110.909 29.8816 110.438 29.7949 109.964 29.8024C109.332 29.7925 108.707 29.9451 108.15 30.2457C107.622 30.5243 107.185 30.9471 106.889 31.4648C106.58 31.9939 106.422 32.5976 106.432 33.2102C106.425 33.8225 106.583 34.4252 106.889 34.9557C107.189 35.4706 107.625 35.8925 108.15 36.1747C108.702 36.4736 109.322 36.6262 109.951 36.618C110.683 36.6318 111.405 36.4346 112.028 36.05V33.1687Z" fill="white"></path><path d="M119.785 36.7308C119.087 35.9281 118.734 34.883 118.801 33.8217V28.7793H120.062V33.7663C120.062 35.6641 120.893 36.62 122.555 36.62C122.899 36.642 123.244 36.5903 123.566 36.4685C123.889 36.3466 124.182 36.1574 124.425 35.9135C124.899 35.3027 125.126 34.5366 125.063 33.7663V28.7793H126.295V33.8494C126.331 34.3784 126.261 34.9092 126.09 35.4109C125.919 35.9127 125.65 36.3755 125.298 36.7724C124.524 37.4293 123.542 37.7899 122.527 37.7899C121.513 37.7899 120.531 37.4293 119.757 36.7724L119.785 36.7308Z" fill="white"></path><path d="M137.558 35.4286H132.848L131.878 37.6451H130.576L134.58 28.7793H135.84L139.858 37.6451H138.472L137.558 35.4286ZM137.115 34.4174L135.203 30.0815L133.291 34.4174H137.115Z" fill="white"></path><path d="M150.414 33.1688H151.619V36.6182C151.168 36.9889 150.651 37.2709 150.096 37.4494C149.506 37.6445 148.888 37.7427 148.267 37.7403C147.427 37.7536 146.598 37.5534 145.857 37.1584C145.152 36.7882 144.566 36.2264 144.167 35.5377C143.758 34.8301 143.543 34.0274 143.543 33.2104C143.543 32.3934 143.758 31.5907 144.167 30.8831C144.566 30.1944 145.152 29.6326 145.857 29.2624C146.608 28.8674 147.446 28.6674 148.295 28.6805C148.953 28.6684 149.607 28.7861 150.22 29.0269C150.788 29.2465 151.296 29.5978 151.702 30.052L150.913 30.8277C150.575 30.4955 150.174 30.2338 149.734 30.0578C149.294 29.8818 148.824 29.7951 148.35 29.8026C147.717 29.7927 147.092 29.9453 146.535 30.2459C146.008 30.5245 145.571 30.9473 145.275 31.4649C144.966 31.9941 144.808 32.5977 144.818 33.2104C144.811 33.8226 144.969 34.4254 145.275 34.9559C145.574 35.4708 146.011 35.8927 146.535 36.1749C147.088 36.4738 147.708 36.6264 148.336 36.6182C149.069 36.6319 149.79 36.4348 150.414 36.0502V33.1688Z" fill="white"></path><path d="M163.686 36.6191V37.7134H157.258V28.8477H163.505V29.9559H158.518V32.7264H162.965V33.807H158.518V36.6191H163.686Z" fill="white"></path><path d="M189.464 37.4357C188.926 37.2782 188.43 37.0039 188.01 36.6323L188.481 35.6487C188.858 35.9749 189.296 36.2243 189.769 36.3829C190.292 36.5768 190.846 36.6753 191.404 36.6738C191.974 36.714 192.543 36.5838 193.038 36.2998C193.21 36.1972 193.352 36.0509 193.45 35.8757C193.547 35.7005 193.596 35.5028 193.592 35.3024C193.599 35.1651 193.575 35.028 193.523 34.901C193.47 34.774 193.39 34.6604 193.288 34.5682C193.081 34.3656 192.829 34.2138 192.553 34.1249C192.263 34.0279 191.861 33.9033 191.321 33.7786C190.775 33.6578 190.238 33.5004 189.714 33.3076C189.309 33.1447 188.948 32.8883 188.661 32.5595C188.342 32.1714 188.183 31.6757 188.218 31.1743C188.212 30.7216 188.342 30.2775 188.592 29.8998C188.869 29.4869 189.265 29.168 189.727 28.9855C190.323 28.7359 190.966 28.6177 191.611 28.6392C192.136 28.6393 192.657 28.7091 193.163 28.847C193.63 28.9556 194.072 29.1531 194.465 29.4288L194.05 30.4401C193.679 30.207 193.278 30.0253 192.858 29.8998C192.453 29.7809 192.033 29.7203 191.611 29.7197C191.049 29.6825 190.488 29.8178 190.005 30.1076C189.837 30.2171 189.699 30.3672 189.605 30.544C189.51 30.7207 189.462 30.9185 189.464 31.1189C189.458 31.2581 189.482 31.397 189.535 31.5261C189.588 31.6552 189.667 31.7714 189.769 31.8669C189.986 32.0632 190.241 32.2139 190.517 32.3102C190.822 32.4072 191.224 32.518 191.736 32.6427C192.284 32.7607 192.821 32.9229 193.343 33.1275C193.751 33.2784 194.113 33.5312 194.396 33.8617C194.701 34.23 194.854 34.7004 194.825 35.1777C194.831 35.6304 194.701 36.0745 194.451 36.4522C194.169 36.8655 193.768 37.1841 193.301 37.3665C192.698 37.6042 192.052 37.7173 191.404 37.6989C190.747 37.7172 190.092 37.6283 189.464 37.4357Z" fill="white"></path><path d="M206.35 36.6191V37.7134H199.922V28.8477H206.169V29.9559H201.182V32.7264H205.629V33.807H201.182V36.6191H206.35Z" fill="white"></path><path d="M217.515 37.645L215.604 34.8745H212.833V37.5758H211.559V28.71H215.022C216.016 28.6374 217.002 28.9333 217.792 29.5412C218.119 29.8162 218.378 30.1632 218.549 30.5549C218.719 30.9466 218.797 31.3724 218.776 31.7992C218.797 32.4189 218.623 33.0297 218.277 33.5446C217.94 34.0352 217.455 34.4044 216.892 34.5974L218.984 37.5758L217.515 37.645ZM216.837 33.3507C217.038 33.1615 217.199 32.933 217.309 32.6793C217.419 32.4255 217.476 32.1519 217.476 31.8754C217.476 31.5988 217.419 31.3252 217.309 31.0715C217.199 30.8177 217.038 30.5892 216.837 30.4C216.306 30.0191 215.659 29.8376 215.008 29.8875H212.861V33.8494H215.008C215.657 33.9033 216.305 33.7267 216.837 33.3507Z" fill="white"></path><path d="M231.7 28.7793L227.821 37.6451H226.561L222.668 28.7793H224.053L227.253 36.0659L230.467 28.7793H231.7Z" fill="white"></path><path d="M236.051 28.7793H237.311V37.6451H236.051V28.7793Z" fill="white"></path><path d="M244.753 37.1602C244.051 36.791 243.469 36.2286 243.077 35.5394C242.669 34.8323 242.458 34.0285 242.467 33.2122C242.457 32.4 242.667 31.6003 243.077 30.8988C243.475 30.2138 244.055 29.6527 244.753 29.278C245.491 28.8742 246.322 28.6689 247.163 28.6823C247.812 28.6717 248.457 28.7894 249.061 29.0286C249.626 29.2537 250.129 29.6098 250.53 30.0676L249.712 30.8572C249.394 30.5166 249.007 30.2469 248.577 30.0656C248.148 29.8842 247.685 29.7952 247.219 29.8044C246.595 29.7961 245.979 29.9488 245.432 30.2477C244.908 30.5321 244.475 30.9597 244.185 31.4806C243.878 32.0054 243.72 32.6041 243.728 33.2122C243.721 33.8244 243.879 34.4272 244.185 34.9576C244.475 35.4748 244.908 35.8978 245.432 36.1767C245.979 36.4756 246.595 36.6282 247.219 36.62C247.686 36.6274 248.149 36.5362 248.579 36.3524C249.009 36.1686 249.395 35.8963 249.712 35.5533L250.53 36.3567C250.127 36.8114 249.624 37.167 249.061 37.3957C248.452 37.634 247.803 37.7516 247.149 37.742C246.314 37.7554 245.489 37.5551 244.753 37.1602Z" fill="white"></path><path d="M261.982 36.6191V37.7134H255.555V28.8477H261.761V29.9559H256.774V32.7264H261.22V33.807H256.774V36.6191H261.982Z" fill="white"></path><path d="M267.9 37.4357C267.363 37.2749 266.867 37.0009 266.445 36.6323L266.916 35.6487C267.294 35.9749 267.732 36.2243 268.205 36.3829C268.728 36.5768 269.281 36.6753 269.839 36.6738C270.409 36.714 270.978 36.5838 271.474 36.2998C271.646 36.1972 271.788 36.0509 271.885 35.8757C271.983 35.7005 272.032 35.5028 272.028 35.3024C272.035 35.1651 272.011 35.028 271.958 34.901C271.905 34.774 271.825 34.6604 271.723 34.5682C271.516 34.3656 271.265 34.2138 270.989 34.1249C270.698 34.0279 270.296 33.9033 269.756 33.7786C269.211 33.6578 268.674 33.5004 268.149 33.3076C267.744 33.1447 267.384 32.8883 267.096 32.5595C266.777 32.1714 266.618 31.6757 266.653 31.1743C266.647 30.7216 266.777 30.2775 267.027 29.8998C267.304 29.4869 267.7 29.168 268.163 28.9855C268.759 28.7359 269.401 28.6177 270.047 28.6392C270.571 28.6393 271.093 28.7091 271.599 28.847C272.066 28.9556 272.508 29.1531 272.901 29.4288L272.485 30.4401C272.114 30.207 271.713 30.0253 271.294 29.8998C270.889 29.7809 270.469 29.7203 270.047 29.7197C269.484 29.6825 268.924 29.8178 268.44 30.1076C268.272 30.2171 268.135 30.3672 268.04 30.544C267.946 30.7207 267.898 30.9185 267.9 31.1189C267.894 31.2581 267.918 31.397 267.971 31.5261C268.023 31.6552 268.103 31.7714 268.205 31.8669C268.424 32.0603 268.678 32.2107 268.953 32.3102C269.257 32.4072 269.659 32.518 270.172 32.6427C270.72 32.7607 271.257 32.9229 271.779 33.1275C272.19 33.2724 272.557 33.5204 272.845 33.8479C273.15 34.2161 273.304 34.6866 273.275 35.1639C273.281 35.6166 273.15 36.0606 272.901 36.4383C272.618 36.8516 272.217 37.1702 271.751 37.3526C271.147 37.5904 270.502 37.7035 269.853 37.6851C269.193 37.7081 268.533 37.6239 267.9 37.4357Z" fill="white"></path></svg>