<svg xmlns="http://www.w3.org/2000/svg" width="250" height="39" viewBox="0 0 250 39" fill="none"><g opacity="0.95"><path d="M11.8024 17.6459C13.1074 17.6459 14.1654 16.5879 14.1654 15.2829C14.1654 13.9779 13.1074 12.9199 11.8024 12.9199C10.4974 12.9199 9.43945 13.9779 9.43945 15.2829C9.43945 16.5879 10.4974 17.6459 11.8024 17.6459Z" fill="#97C21E"></path><path d="M44.2214 24.1975V5.85633C44.2214 -0.394929 39.733 0.00515167 39.733 0.00515167H24.73C20.5542 0.00515167 20.2291 0.83032 19.0914 2.38063C17.9536 3.93094 17.8411 4.181 16.1908 2.30562C14.5404 0.430242 12.9651 -0.194888 11.1898 0.0551629C-0.0624997 2.43064 7.54686e-06 11.3074 7.54686e-06 11.3074V26.0354C4.53842 28.2859 10.2146 26.0354 10.2146 26.0354C8.24078 28.2896 5.53631 29.7768 2.57553 30.2362C2.86309 30.6113 4.33837 30.5238 4.33837 30.5238H37.4576C37.6065 31.9621 37.3714 33.4142 36.7762 34.732C36.181 36.0498 35.247 37.1862 34.0694 38.0253C44.9591 35.6748 44.2214 24.1975 44.2214 24.1975ZM10.2646 19.2965C8.78092 19.2965 7.33058 18.8566 6.09696 18.0323C4.86334 17.208 3.90186 16.0365 3.33409 14.6657C2.76631 13.295 2.61776 11.7867 2.90721 10.3316C3.19666 8.87641 3.91109 7.53977 4.9602 6.49066C6.0093 5.44156 7.34595 4.7271 8.8011 4.43766C10.2562 4.14821 11.7646 4.29677 13.1353 4.86454C14.506 5.43231 15.6776 6.3938 16.5019 7.62741C17.3261 8.86103 17.7661 10.3114 17.7661 11.795C17.7661 13.7846 16.9758 15.6926 15.569 17.0994C14.1621 18.5062 12.2541 19.2965 10.2646 19.2965ZM22.092 17.5962C21.6246 17.5962 21.1678 17.4576 20.7792 17.198C20.3906 16.9383 20.0877 16.5693 19.9089 16.1375C19.73 15.7057 19.6832 15.2306 19.7744 14.7722C19.8656 14.3139 20.0906 13.8928 20.4211 13.5623C20.7515 13.2319 21.1726 13.0068 21.631 12.9157C22.0893 12.8245 22.5645 12.8713 22.9962 13.0501C23.428 13.229 23.7971 13.5318 24.0567 13.9204C24.3164 14.309 24.4549 14.7659 24.4549 15.2332C24.4616 15.5477 24.4054 15.8604 24.2896 16.1529C24.1739 16.4454 24.0009 16.7118 23.7808 16.9365C23.5607 17.1613 23.2979 17.3398 23.0079 17.4617C22.7179 17.5835 22.4065 17.6463 22.092 17.6462V17.5962ZM32.344 17.5962C31.8762 17.5987 31.4181 17.4622 31.0278 17.2041C30.6376 16.9459 30.3328 16.5777 30.152 16.1462C29.9713 15.7146 29.9227 15.2391 30.0124 14.7799C30.1022 14.3208 30.3263 13.8985 30.6562 13.5668C30.9862 13.2351 31.4072 13.0088 31.8659 12.9166C32.3246 12.8244 32.8004 12.8705 33.2329 13.0489C33.6654 13.2274 34.0352 13.5303 34.2954 13.9191C34.5556 14.308 34.6945 14.7653 34.6945 15.2332C34.7011 15.5467 34.6453 15.8583 34.5303 16.15C34.4154 16.4416 34.2435 16.7075 34.0247 16.9321C33.8059 17.1566 33.5447 17.3354 33.2561 17.458C32.9676 17.5807 32.6575 17.6446 32.344 17.6462V17.5962Z" fill="#97C21E"></path><path d="M83.943 3.73242L78.942 19.048H74.3035L71.3779 9.72112L68.3398 19.048H63.7139L58.7129 3.73242H63.1763L66.2519 13.5094L69.4901 3.73242H73.4784L76.5665 13.5969L79.7796 3.73242H83.943Z" fill="#4A4A4A"></path><path d="M85.4922 3.73242H89.8181V19.048H85.4922V3.73242Z" fill="#4A4A4A"></path><path d="M107.472 3.73242V19.048H103.908L97.1571 10.8839V19.048H92.9062V3.73242H96.4695L103.233 11.8841V3.73242H107.472Z" fill="#4A4A4A"></path><path d="M128.725 19.0475L127.287 17.7973C126.559 18.3143 125.753 18.7111 124.899 18.9725C124.007 19.24 123.08 19.3748 122.149 19.3726C121.082 19.3861 120.021 19.1995 119.023 18.8225C118.166 18.5083 117.407 17.9735 116.823 17.2721C116.311 16.6492 116.036 15.8652 116.047 15.0592C116.033 14.1663 116.3 13.2914 116.81 12.5587C117.459 11.7112 118.293 11.0228 119.248 10.5458C118.811 10.1541 118.457 9.67929 118.206 9.14905C117.955 8.61881 117.812 8.0438 117.785 7.45767C117.773 6.72366 117.997 6.00513 118.423 5.40726C118.873 4.77724 119.499 4.2944 120.223 4.01948C121.079 3.66847 121.999 3.49821 122.924 3.51938C124.145 3.46379 125.35 3.81563 126.35 4.51958C126.757 4.83237 127.084 5.23882 127.302 5.70453C127.519 6.17025 127.622 6.68153 127.6 7.19512C127.612 7.95244 127.37 8.69194 126.912 9.29554C126.323 10.0138 125.591 10.6013 124.762 11.0209L126.987 13.0213L128.237 11.396L130.475 13.5089L129.55 15.3093L133.301 19.06L128.725 19.0475ZM124.812 15.5468L121.499 12.6087C121.095 12.8448 120.738 13.1543 120.448 13.5214C120.233 13.8336 120.119 14.2048 120.123 14.5841C120.124 14.8141 120.183 15.0401 120.294 15.2412C120.406 15.4423 120.566 15.612 120.761 15.7343C121.271 16.0479 121.863 16.2004 122.461 16.1719C123.287 16.1813 124.1 15.9651 124.812 15.5468V15.5468ZM121.924 6.55749C121.806 6.66006 121.713 6.78714 121.651 6.92974C121.588 7.07233 121.557 7.22695 121.561 7.38266C121.564 7.63542 121.637 7.88233 121.774 8.0953C121.997 8.42015 122.257 8.71803 122.549 8.98298C123.01 8.76549 123.432 8.47408 123.799 8.1203C124.024 7.89363 124.154 7.58943 124.162 7.27013C124.167 7.12997 124.141 6.99041 124.087 6.86095C124.033 6.7315 123.952 6.61519 123.849 6.51998C123.588 6.32039 123.264 6.22261 122.936 6.24493C122.572 6.22008 122.211 6.33146 121.924 6.55749V6.55749Z" fill="#4A4A4A"></path><path d="M163.732 3.73242L158.731 19.048H154.093L151.23 9.72112L148.167 19.048H143.528L138.527 3.73242H142.991L146.079 13.5094L149.317 3.73242H153.305L156.381 13.5969L159.607 3.73242H163.732Z" fill="#4A4A4A"></path><path d="M165.309 3.73242H169.634V19.048H165.309V3.73242Z" fill="#4A4A4A"></path><path d="M187.287 3.73242V19.048H183.737L176.973 10.8839V19.048H172.734V3.73242H176.235L182.999 11.8841V3.73242H187.287Z" fill="#4A4A4A"></path><path d="M204.992 3.73242V19.048H201.366L194.602 10.8839V19.048H190.352V3.73242H193.927L200.679 11.8841V3.73242H204.992Z" fill="#4A4A4A"></path><path d="M211.343 18.3219C210.089 17.6662 209.039 16.6805 208.304 15.4713C207.584 14.2291 207.205 12.8188 207.205 11.383C207.205 9.94715 207.584 8.53681 208.304 7.29464C209.039 6.08542 210.089 5.09974 211.343 4.44406C212.702 3.7679 214.2 3.41602 215.718 3.41602C217.237 3.41602 218.735 3.7679 220.094 4.44406C221.361 5.10166 222.419 6.09933 223.15 7.32505C223.881 8.55076 224.256 9.956 224.233 11.383C224.258 12.8222 223.877 14.2394 223.132 15.4713C222.398 16.6805 221.348 17.6662 220.094 18.3219C218.735 18.998 217.237 19.3499 215.718 19.3499C214.2 19.3499 212.702 18.998 211.343 18.3219V18.3219ZM217.819 15.2087C218.445 14.8407 218.96 14.3091 219.307 13.6709C219.66 12.96 219.844 12.1769 219.844 11.383C219.844 10.589 219.66 9.80589 219.307 9.09499C218.96 8.45682 218.445 7.92521 217.819 7.55719C217.179 7.19182 216.455 7.00203 215.718 7.00708C214.982 6.99901 214.256 7.189 213.618 7.55719C212.986 7.91785 212.47 8.45132 212.13 9.09499C211.766 9.80269 211.576 10.5871 211.576 11.383C211.576 12.1788 211.766 12.9632 212.13 13.6709C212.47 14.3146 212.986 14.8481 213.618 15.2087C214.254 15.5828 214.981 15.7732 215.718 15.7588C216.456 15.77 217.182 15.5798 217.819 15.2087V15.2087Z" fill="#4A4A4A"></path><path d="M250 3.73242L244.999 19.048H240.361L237.497 9.72112L234.434 19.048H229.796L224.795 3.73242H229.258L232.346 13.5094L235.585 3.73242H239.56L242.649 13.5969L245.862 3.73242H250Z" fill="#4A4A4A"></path><path d="M62.4629 25.9727H63.6006V33.0491H67.939V34.0368H62.4629V25.9727Z" fill="#4A4A4A"></path><path d="M77.2153 31.9739H72.9645L72.0893 33.9743H70.9141L74.5273 25.9727H75.665L79.2908 33.9743H78.0405L77.2153 31.9739ZM76.8153 31.0612L75.0899 27.1479L73.3646 31.0612H76.8153Z" fill="#4A4A4A"></path><path d="M90.269 25.9727V33.9743H89.3313L84.5303 28.0481V34.0118H83.3926V26.0102H84.3178L89.1187 31.9739V25.9727H90.269Z" fill="#4A4A4A"></path><path d="M101.108 29.9362H102.208V33.0493C101.795 33.3816 101.325 33.6358 100.821 33.7995C100.288 33.9756 99.731 34.0642 99.1703 34.062C98.4125 34.0724 97.6644 33.8918 96.9948 33.5369C96.3587 33.2028 95.83 32.6957 95.4695 32.0741C95.1092 31.4327 94.9199 30.7094 94.9199 29.9737C94.9199 29.238 95.1092 28.5147 95.4695 27.8733C95.83 27.2517 96.3587 26.7446 96.9948 26.4105C97.6728 26.054 98.4294 25.8735 99.1953 25.8854C99.7934 25.8757 100.388 25.9818 100.946 26.1979C101.453 26.3995 101.907 26.7163 102.271 27.1231L101.558 27.8233C101.253 27.5234 100.892 27.2872 100.495 27.1284C100.098 26.9695 99.6729 26.8913 99.2453 26.8981C98.6741 26.8891 98.1102 27.0269 97.6075 27.2982C97.1316 27.5496 96.737 27.9312 96.4697 28.3984C96.1908 28.8759 96.0481 29.4208 96.0571 29.9737C96.0512 30.5263 96.1937 31.0703 96.4697 31.549C96.7402 32.0137 97.1339 32.3945 97.6075 32.6492C98.1063 32.919 98.6658 33.0567 99.2328 33.0493C99.8941 33.0617 100.545 32.8838 101.108 32.5367V29.9362Z" fill="#4A4A4A"></path><path d="M108.11 33.1491C107.48 32.4246 107.161 31.4814 107.222 30.5236V25.9727H108.36V30.4736C108.36 32.1864 109.11 33.0491 110.61 33.0491C110.921 33.0689 111.232 33.0223 111.523 32.9123C111.814 32.8024 112.078 32.6316 112.298 32.4115C112.726 31.8602 112.931 31.1687 112.873 30.4736V25.9727H113.986V30.5486C114.018 31.026 113.955 31.505 113.801 31.9579C113.646 32.4108 113.403 32.8284 113.086 33.1866C112.388 33.7795 111.501 34.105 110.585 34.105C109.669 34.105 108.783 33.7795 108.085 33.1866L108.11 33.1491Z" fill="#4A4A4A"></path><path d="M124.149 31.9739H119.898L119.023 33.9743H117.848L121.461 25.9727H122.599L126.224 33.9743H124.974L124.149 31.9739ZM123.749 31.0612L122.023 27.1479L120.298 31.0612H123.749Z" fill="#4A4A4A"></path><path d="M135.752 29.9364H136.84V33.0495C136.433 33.384 135.966 33.6386 135.465 33.7996C134.932 33.9757 134.375 34.0644 133.814 34.0622C133.056 34.0742 132.308 33.8935 131.639 33.5371C131.003 33.2029 130.474 32.6958 130.114 32.0743C129.745 31.4357 129.551 30.7113 129.551 29.9739C129.551 29.2365 129.745 28.512 130.114 27.8734C130.474 27.2519 131.003 26.7448 131.639 26.4106C132.317 26.0542 133.073 25.8736 133.839 25.8855C134.434 25.8746 135.024 25.9808 135.577 26.1981C136.09 26.3963 136.548 26.7134 136.915 27.1233L136.202 27.8234C135.897 27.5236 135.536 27.2874 135.139 27.1285C134.742 26.9697 134.317 26.8914 133.889 26.8982C133.318 26.8893 132.754 27.027 132.252 27.2983C131.776 27.5498 131.381 27.9313 131.114 28.3985C130.835 28.8761 130.692 29.4209 130.701 29.9739C130.695 30.5264 130.838 31.0704 131.114 31.5492C131.384 32.0139 131.778 32.3947 132.252 32.6494C132.75 32.9191 133.31 33.0569 133.877 33.0495C134.538 33.0619 135.189 32.8839 135.752 32.5369V29.9364Z" fill="#4A4A4A"></path><path d="M147.731 33.0491V34.0368H141.93V26.0352H147.568V27.0354H143.067V29.5359H147.081V30.5111H143.067V33.0491H147.731Z" fill="#4A4A4A"></path><path d="M170.996 33.787C170.511 33.6449 170.062 33.3973 169.684 33.0619L170.109 32.1742C170.449 32.4686 170.844 32.6937 171.271 32.8369C171.744 33.0118 172.243 33.1007 172.747 33.0994C173.261 33.1356 173.775 33.0181 174.222 32.7618C174.377 32.6692 174.505 32.5372 174.593 32.3791C174.681 32.221 174.726 32.0425 174.722 31.8617C174.728 31.7377 174.707 31.614 174.659 31.4994C174.612 31.3848 174.539 31.2822 174.447 31.199C174.26 31.0161 174.033 30.8792 173.784 30.7989C173.522 30.7114 173.159 30.5989 172.672 30.4864C172.179 30.3773 171.695 30.2353 171.221 30.0613C170.856 29.9142 170.53 29.6829 170.271 29.3862C169.983 29.0358 169.84 28.5885 169.871 28.1359C169.866 27.7273 169.983 27.3266 170.209 26.9857C170.459 26.613 170.816 26.3252 171.234 26.1605C171.772 25.9352 172.352 25.8286 172.934 25.8479C173.407 25.848 173.878 25.9111 174.335 26.0355C174.756 26.1335 175.155 26.3118 175.51 26.5606L175.135 27.4733C174.8 27.2629 174.438 27.0989 174.059 26.9857C173.694 26.8784 173.315 26.8236 172.934 26.8231C172.426 26.7895 171.921 26.9117 171.484 27.1732C171.332 27.2721 171.208 27.4075 171.123 27.567C171.038 27.7266 170.994 27.905 170.996 28.0859C170.991 28.2116 171.013 28.337 171.06 28.4535C171.108 28.57 171.18 28.6749 171.271 28.761C171.467 28.9382 171.697 29.0742 171.947 29.1611C172.222 29.2486 172.584 29.3486 173.047 29.4612C173.541 29.5677 174.026 29.7141 174.497 29.8988C174.865 30.035 175.192 30.2631 175.447 30.5614C175.722 30.8938 175.861 31.3184 175.835 31.7491C175.84 32.1577 175.723 32.5585 175.497 32.8994C175.242 33.2724 174.88 33.5599 174.46 33.7245C173.915 33.9391 173.332 34.0412 172.747 34.0246C172.154 34.0411 171.563 33.9609 170.996 33.787V33.787Z" fill="#4A4A4A"></path><path d="M186.237 33.0491V34.0368H180.436V26.0352H186.074V27.0354H181.573V29.5359H185.587V30.5111H181.573V33.0491H186.237Z" fill="#4A4A4A"></path><path d="M196.314 33.9762L194.588 31.4757H192.088V33.9137H190.938V25.9121H194.063C194.96 25.8466 195.851 26.1136 196.564 26.6622C196.859 26.9105 197.092 27.2236 197.246 27.5771C197.4 27.9306 197.47 28.315 197.451 28.7001C197.471 29.2595 197.313 29.8107 197.001 30.2754C196.697 30.7182 196.259 31.0514 195.751 31.2256L197.639 33.9137L196.314 33.9762ZM195.701 30.1004C195.883 29.9297 196.028 29.7235 196.127 29.4944C196.227 29.2654 196.278 29.0185 196.278 28.7689C196.278 28.5193 196.227 28.2724 196.127 28.0434C196.028 27.8143 195.883 27.6081 195.701 27.4374C195.223 27.0936 194.638 26.9297 194.051 26.9748H192.113V30.5505H194.051C194.637 30.5992 195.221 30.4398 195.701 30.1004V30.1004Z" fill="#4A4A4A"></path><path d="M209.116 25.9727L205.616 33.9743H204.478L200.965 25.9727H202.215L205.103 32.549L208.004 25.9727H209.116Z" fill="#4A4A4A"></path><path d="M213.043 25.9727H214.181V33.9743H213.043V25.9727Z" fill="#4A4A4A"></path><path d="M220.895 33.5369C220.262 33.2037 219.737 32.6961 219.382 32.0741C219.014 31.4359 218.824 30.7105 218.832 29.9737C218.823 29.2407 219.013 28.5189 219.382 27.8858C219.742 27.2676 220.265 26.7612 220.895 26.423C221.562 26.0585 222.311 25.8733 223.071 25.8854C223.657 25.8758 224.239 25.982 224.784 26.1979C225.293 26.4011 225.748 26.7225 226.109 27.1356L225.371 27.8483C225.084 27.5409 224.735 27.2975 224.347 27.1338C223.959 26.9701 223.542 26.8898 223.121 26.8981C222.558 26.8906 222.002 27.0284 221.508 27.2982C221.035 27.5549 220.645 27.9408 220.383 28.4109C220.105 28.8845 219.963 29.4249 219.97 29.9737C219.964 30.5263 220.107 31.0703 220.383 31.549C220.645 32.0158 221.035 32.3976 221.508 32.6492C222.002 32.919 222.558 33.0568 223.121 33.0493C223.542 33.056 223.961 32.9737 224.349 32.8079C224.736 32.642 225.085 32.3962 225.371 32.0866L226.109 32.8118C225.745 33.2221 225.292 33.543 224.784 33.7494C224.234 33.9645 223.648 34.0706 223.058 34.062C222.304 34.0741 221.56 33.8933 220.895 33.5369V33.5369Z" fill="#4A4A4A"></path><path d="M236.448 33.0491V34.0368H230.646V26.0352H236.248V27.0354H231.747V29.5359H235.76V30.5111H231.747V33.0491H236.448Z" fill="#4A4A4A"></path><path d="M241.785 33.787C241.301 33.6419 240.853 33.3946 240.473 33.0619L240.898 32.1742C241.239 32.4686 241.633 32.6937 242.06 32.8369C242.533 33.0118 243.032 33.1007 243.536 33.0994C244.05 33.1356 244.564 33.0181 245.011 32.7618C245.166 32.6692 245.294 32.5372 245.382 32.3791C245.47 32.221 245.515 32.0425 245.511 31.8617C245.517 31.7377 245.496 31.614 245.448 31.4994C245.401 31.3848 245.328 31.2822 245.236 31.199C245.049 31.0161 244.822 30.8792 244.573 30.7989C244.311 30.7114 243.948 30.5989 243.461 30.4864C242.968 30.3773 242.484 30.2353 242.01 30.0613C241.645 29.9142 241.319 29.6829 241.06 29.3862C240.772 29.0358 240.629 28.5885 240.66 28.1359C240.655 27.7273 240.772 27.3266 240.998 26.9857C241.248 26.613 241.605 26.3252 242.023 26.1605C242.561 25.9352 243.141 25.8286 243.723 25.8479C244.196 25.848 244.667 25.9111 245.124 26.0355C245.545 26.1335 245.944 26.3118 246.299 26.5606L245.924 27.4733C245.589 27.2629 245.227 27.0989 244.849 26.9857C244.483 26.8784 244.104 26.8236 243.723 26.8231C243.216 26.7895 242.71 26.9117 242.273 27.1732C242.122 27.2721 241.997 27.4075 241.912 27.567C241.827 27.7266 241.783 27.905 241.785 28.0859C241.78 28.2116 241.802 28.337 241.849 28.4535C241.897 28.57 241.969 28.6749 242.06 28.761C242.258 28.9356 242.487 29.0714 242.736 29.1611C243.011 29.2486 243.373 29.3486 243.836 29.4612C244.33 29.5677 244.815 29.7141 245.286 29.8988C245.657 30.0296 245.989 30.2534 246.249 30.5489C246.524 30.8813 246.663 31.3059 246.636 31.7366C246.642 32.1452 246.524 32.546 246.299 32.8869C246.044 33.2599 245.682 33.5474 245.261 33.712C244.716 33.9266 244.134 34.0287 243.548 34.0121C242.952 34.0329 242.357 33.9569 241.785 33.787Z" fill="#4A4A4A"></path></g></svg>